<?xml version="1.0" standalone="no"?>
<!DOCTYPE svg PUBLIC "-//W3C//DTD SVG 20010904//EN"
 "http://www.w3.org/TR/2001/REC-SVG-20010904/DTD/svg10.dtd">
<svg version="1.0" xmlns="http://www.w3.org/2000/svg"
 width="159.000000pt" height="159.000000pt" viewBox="0 0 159.000000 159.000000"
 preserveAspectRatio="xMidYMid meet">

<g transform="translate(0.000000,159.000000) scale(0.100000,-0.100000)"
fill="#000000" stroke="none">
<path d="M709 1416 c-71 -20 -145 -65 -194 -117 l-45 -48 -26 60 c-25 55 -28
58 -44 44 -10 -9 -28 -36 -41 -60 l-23 -44 24 -25 c15 -17 19 -26 10 -26 -8 0
2 -16 22 -37 30 -32 37 -47 42 -98 4 -33 17 -80 29 -105 12 -25 22 -57 23 -72
2 -41 31 -78 64 -85 34 -6 36 -11 15 -39 -25 -34 -16 -36 31 -10 l47 26 59
-16 59 -17 -37 -33 c-34 -32 -36 -37 -32 -78 3 -24 14 -64 26 -88 11 -23 26
-61 32 -83 7 -22 16 -42 19 -45 4 -3 19 -27 35 -53 20 -35 35 -49 57 -54 23
-4 35 -17 57 -62 35 -68 62 -85 106 -67 22 9 32 20 34 39 3 23 -2 27 -37 37
-23 6 -41 16 -41 21 0 6 -10 19 -22 29 -18 15 -20 20 -10 33 32 39 59 27 96
-43 34 -63 73 -77 117 -41 29 24 18 49 -28 65 -45 16 -93 74 -83 100 5 14 1
34 -11 58 -11 21 -17 38 -14 38 3 0 0 10 -6 22 -12 23 -12 23 9 5 26 -23 75
-19 80 6 7 36 -20 73 -104 142 -78 65 -96 85 -76 85 5 0 30 14 56 31 58 39 80
78 73 132 -4 28 0 48 14 71 19 30 21 29 21 -14 1 -3 -3 -18 -6 -34 l-7 -29 28
18 c37 25 60 53 73 93 7 18 15 30 20 27 11 -7 30 50 30 88 0 42 -37 114 -71
139 -16 12 -29 25 -29 28 0 8 81 -3 98 -14 17 -10 15 5 -4 33 -27 38 -110 71
-179 70 -33 -1 -71 -4 -85 -8 -14 -4 -45 -1 -69 6 -54 16 -121 15 -182 -1z
m265 -341 c3 -8 1 -15 -4 -15 -6 0 -10 7 -10 15 0 8 2 15 4 15 2 0 6 -7 10
-15z m-174 -45 c0 -13 -1 -13 -10 0 -5 8 -10 22 -10 30 0 13 1 13 10 0 5 -8
10 -22 10 -30z m-74 -17 c-11 -11 -19 6 -11 24 8 17 8 17 12 0 3 -10 2 -21 -1
-24z m274 17 c0 -5 0 -13 0 -17 0 -4 -14 -6 -30 -5 -55 6 -78 -72 -29 -98 21
-12 59 2 59 21 0 6 -7 3 -16 -5 -8 -9 -19 -16 -24 -16 -13 0 -40 30 -40 44 0
7 6 20 13 30 14 20 58 19 64 -1 3 -7 -3 -9 -16 -6 -25 6 -40 -22 -21 -40 10
-9 11 -7 5 11 -6 22 8 31 20 12 3 -5 12 -7 20 -3 10 3 15 -1 15 -13 0 -14 2
-16 9 -6 7 11 9 -38 2 -70 -2 -11 -104 -78 -118 -78 -6 0 -13 15 -15 33 -2 27
-8 33 -31 35 -35 4 -57 -13 -57 -43 0 -63 -19 -67 -130 -30 -41 13 -88 25
-103 25 -59 0 -104 95 -62 130 21 17 108 -18 113 -46 7 -34 43 -64 79 -64 49
0 100 24 108 52 11 35 57 81 67 66 5 -9 8 -6 8 9 0 29 10 53 22 53 5 0 16 7
24 15 17 17 64 20 64 5z m-340 -20 c0 -5 -5 -10 -11 -10 -5 0 -7 5 -4 10 3 6
8 10 11 10 2 0 4 -4 4 -10z m64 -31 c-17 -3 -36 -9 -42 -13 -8 -4 -10 -2 -6 8
3 8 18 16 32 18 39 5 52 -5 16 -13z m50 -31 c9 -12 16 -31 16 -41 0 -10 5 -15
10 -12 18 11 10 -11 -10 -30 -11 -10 -41 -20 -68 -23 -58 -5 -72 8 -80 73 -4
37 -2 45 12 45 12 0 15 -6 10 -24 -12 -49 34 -89 76 -66 32 17 24 65 -10 65
-27 0 -35 -25 -10 -33 13 -5 13 -3 1 11 -12 15 -11 17 8 17 25 0 29 -31 6 -50
-19 -16 -65 12 -65 40 0 48 76 69 104 28z m83 -114 c-3 -3 -12 -4 -19 -1 -8 3
-5 6 6 6 11 1 17 -2 13 -5z m26 -55 c-8 -8 -13 -7 -17 0 -4 6 -3 11 2 11 6 0
8 10 6 23 l-5 22 12 -23 c9 -16 9 -26 2 -33z m-50 18 c3 -8 1 -20 -4 -28 -6
-10 -9 -7 -9 14 0 29 5 35 13 14z m50 -137 c-7 -25 -15 -25 -36 -2 -15 17 -15
18 12 20 25 2 28 -1 24 -18z m217 -89 c0 -19 -17 -38 -25 -29 -7 7 7 48 16 48
5 0 9 -9 9 -19z m-65 -147 c-5 -27 0 -39 24 -67 30 -34 31 -47 3 -47 -12 0
-12 2 -1 17 8 9 9 14 3 10 -14 -8 -48 28 -40 42 5 7 -7 10 -31 8 -36 -2 -37
-1 -44 36 -5 34 -4 38 12 34 10 -3 17 -2 16 2 -1 3 5 14 13 23 14 16 16 16 33
-4 13 -16 17 -31 12 -54z m-108 30 c-2 -15 2 -39 11 -54 15 -27 15 -30 -2 -49
-13 -14 -31 -21 -55 -21 -37 0 -45 7 -78 69 -11 20 -11 22 2 17 8 -3 21 -9 29
-12 8 -3 24 4 35 15 12 12 26 21 31 21 9 0 14 14 11 33 0 4 4 7 10 7 7 0 9
-11 6 -26z m-59 -11 c-2 -10 -14 -20 -28 -22 -25 -3 -25 -3 -6 18 23 26 39 27
34 4z m100 -163 c33 -38 36 -65 6 -53 -12 4 -12 8 -2 21 11 13 10 14 -9 3 -24
-12 -31 -3 -12 16 8 8 7 11 -6 10 -9 -1 -24 8 -32 21 -28 40 18 25 55 -18z
m147 20 c0 -7 -10 -16 -22 -21 -22 -8 -26 3 -9 29 10 16 31 10 31 -8z m36 -33
c-10 -9 -11 -8 -5 6 3 10 9 15 12 12 3 -3 0 -11 -7 -18z m-109 -59 c-7 -7 -12
-8 -12 -2 0 14 12 26 19 19 2 -3 -1 -11 -7 -17z"/>
<path d="M526 914 c-9 -24 -7 -31 4 -14 7 11 10 11 10 2 0 -7 5 -10 10 -7 6 3
10 -1 10 -9 0 -8 -8 -20 -17 -26 -16 -10 -16 -11 3 -7 12 2 30 0 40 -6 19 -10
19 -10 1 11 -11 11 -16 26 -12 32 4 6 -1 18 -11 25 -25 19 -31 18 -38 -1z"/>
<path d="M990 889 c-26 -15 -29 -18 -10 -13 14 3 32 12 40 20 18 18 13 16 -30
-7z"/>
<path d="M855 660 c3 -5 8 -10 11 -10 2 0 4 5 4 10 0 6 -5 10 -11 10 -5 0 -7
-4 -4 -10z"/>
<path d="M863 388 c1 -7 -4 -12 -11 -10 -8 1 -11 -2 -7 -8 5 -8 11 -8 21 1 7
6 11 15 8 20 -8 13 -14 11 -11 -3z"/>
</g>
</svg>
