<svg viewBox="0 0 100 60" xmlns="http://www.w3.org/2000/svg" xmlns:xlink="http://www.w3.org/1999/xlink" width="100.000000" height="60.000000" fill="none">
	<rect id="Size1" width="100.000000" height="60.000000" x="0.000000" y="0.000000" fill="rgb(255,255,255)" />
	<rect id="Rectangle 1" width="22.000000" height="22.000000" x="9.642426" y="15.217346" rx="4.000000" fill="rgb(79,70,229)" />
	<path id="" d="M26.6098 22.5142L25.8408 22.5142L23.4037 30.7173L22.58 30.7173L20.184 23.4371L20.1293 23.4371L17.8051 30.7173L16.978 30.7173L14.3735 22.5142L13.6044 22.5142L13.6044 21.6187L16.7558 21.6187L16.7558 22.5142L15.4672 22.5142L17.3847 29.0528L17.4394 29.0528L19.5414 22.5142L18.6288 22.5142L18.6288 21.6187L21.7665 21.6187L21.7665 22.5142L20.8574 22.5142L22.9833 29.0938L23.0414 29.0938L24.8051 22.5142L23.4892 22.5142L23.4892 21.6187L26.6098 21.6187L26.6098 22.5142Z" fill="rgb(255,255,255)" fill-opacity="255" fill-rule="nonzero" />
	<rect id="Slice 1" />
	<path id="" d="M35.0174 23.8062L36.118 23.8062L37.1981 28.0718L37.5877 29.8629L37.9911 28.147L39.3104 23.8062L40.6092 23.8062L41.9012 28.0992L42.3319 29.8492L42.7352 28.0992L43.7879 23.8062L44.868 23.8062L42.8856 30.7173L41.6893 30.7173L39.953 24.7427L38.203 30.7173L36.9998 30.7173L35.0174 23.8062ZM48.9286 30.8746Q47.992 30.8746 47.4725 30.6216Q46.953 30.3687 46.7308 29.7842Q46.5086 29.1998 46.5086 28.147L46.5086 23.8062L47.5614 23.8062L47.5614 27.9625Q47.5614 28.7623 47.7152 29.2032Q47.869 29.6441 48.221 29.8321Q48.5731 30.0201 49.2157 30.0201Q50.2342 30.0201 50.7196 29.4835Q51.2049 28.9468 51.2049 27.8326L51.2049 23.8062L52.2508 23.8062L52.2508 30.7173L51.3758 30.7173L51.287 29.7945Q50.9452 30.314 50.3333 30.5943Q49.7215 30.8746 48.9286 30.8746ZM54.7118 20.8599L55.7577 20.8599L55.7372 24.7632Q55.9832 24.3189 56.2806 24.0762Q56.578 23.8336 57.0052 23.7276Q57.4325 23.6216 58.0956 23.6216Q59.0252 23.6216 59.5584 23.9429Q60.0916 24.2642 60.3206 24.9307Q60.5497 25.5972 60.5497 26.6978L60.5497 30.7105L59.4969 30.7105L59.4969 26.4927Q59.4969 25.7681 59.326 25.334Q59.1551 24.9 58.7826 24.7017Q58.41 24.5035 57.7879 24.5035Q56.7557 24.5035 56.2635 25.0264Q55.7713 25.5494 55.7713 26.6295L55.7713 30.7105L54.7186 30.7105L54.7118 20.8599Z" fill="rgb(0,0,0)" fill-rule="nonzero" />
	<path id="" d="M68.7059 31.3746Q67.7284 31.3746 67.1439 31.1729Q66.5594 30.9713 66.2894 30.5303Q66.0194 30.0894 66.0194 29.358L66.9491 29.358Q66.9559 29.8297 67.1165 30.0894Q67.2772 30.3492 67.6463 30.4586Q68.0155 30.5679 68.6786 30.5679Q69.2733 30.5679 69.6048 30.4517Q69.9364 30.3355 70.0765 30.0655Q70.2166 29.7955 70.2166 29.3101Q70.2166 28.9547 70.0287 28.7222Q69.8407 28.4898 69.4168 28.336Q68.993 28.1822 68.2479 28.0797Q67.0858 27.9156 66.5526 27.4507Q66.0194 26.9859 66.0194 26.0972Q66.0194 25.106 66.662 24.6275Q67.3045 24.149 68.6444 24.149Q69.5741 24.149 70.1244 24.3506Q70.6747 24.5523 70.9139 24.9932Q71.1532 25.4341 71.1258 26.1656L70.1825 26.1656Q70.1825 25.7213 70.0287 25.4547Q69.8748 25.188 69.5399 25.065Q69.2049 24.942 68.6444 24.942Q68.0633 24.942 67.7113 25.065Q67.3592 25.188 67.1986 25.4512Q67.0379 25.7144 67.0379 26.1519Q67.0379 26.4732 67.2088 26.6851Q67.3797 26.897 67.7865 27.0406Q68.1932 27.1841 68.9247 27.2867Q69.7586 27.4029 70.2474 27.6319Q70.7362 27.8609 70.9618 28.2608Q71.1873 28.6607 71.1873 29.3101Q71.1873 30.0621 70.9378 30.5098Q70.6883 30.9576 70.1483 31.1661Q69.6082 31.3746 68.7059 31.3746ZM73.1288 21.7427L74.5301 21.7427L74.5301 23.0552L73.1288 23.0552L73.1288 21.7427ZM73.3065 24.3062L74.3524 24.3062L74.3524 31.2173L73.3065 31.2173L73.3065 24.3062ZM79.2401 31.3951Q77.3397 31.3951 77.3397 29.2418L77.3397 25.1197L76.0956 25.1197L76.0956 24.2857L77.3397 24.2857L77.3397 22.3922L78.3856 22.3922L78.3856 24.2857L80.0877 24.2857L80.0877 25.1197L78.3924 25.1197L78.3924 29.3853Q78.3924 29.9664 78.6385 30.2159Q78.8846 30.4654 79.4452 30.4654Q79.828 30.4654 80.2381 30.3902L80.2381 31.2994Q79.7596 31.3951 79.2401 31.3951ZM84.4354 31.3746Q83.3075 31.3746 82.6307 31.0123Q81.9539 30.65 81.6429 29.8638Q81.3319 29.0777 81.3319 27.7652Q81.3319 26.5347 81.6395 25.7383Q81.9471 24.942 82.6239 24.5455Q83.3006 24.149 84.4081 24.149Q85.4676 24.149 86.1068 24.4634Q86.7459 24.7779 87.0399 25.4581Q87.3338 26.1382 87.3338 27.273L87.327 27.9361L82.3983 27.9361Q82.3983 28.8863 82.6068 29.4571Q82.8153 30.0279 83.263 30.2911Q83.7108 30.5543 84.4627 30.5543Q85.0711 30.5543 85.4437 30.4312Q85.8163 30.3082 85.9974 30.0381Q86.1786 29.7681 86.1991 29.317L87.2723 29.317Q87.2723 30.3697 86.5785 30.8721Q85.8846 31.3746 84.4354 31.3746ZM86.2606 27.1568Q86.2811 26.3707 86.0965 25.899Q85.912 25.4273 85.495 25.2086Q85.078 24.9898 84.3807 24.9898Q83.6493 24.9898 83.2357 25.188Q82.8221 25.3863 82.6307 25.8511Q82.4393 26.316 82.412 27.1568L86.2606 27.1568Z" fill="rgb(0,0,0)" fill-opacity="0.5" fill-rule="nonzero" />
	<circle id="Oval 1" cx="62.1424255" cy="29.7173462" r="1.5" fill="rgb(20,184,166)" />
</svg>
